<svg width="832" height="266" viewBox="0 0 832 266" fill="none" xmlns="http://www.w3.org/2000/svg">
<path d="M233.47 190.72V136.75H190.73V175.8L190.54 175.91L116.79 218.49L116.6 218.38L42.8501 175.8V90.42L43.04 90.31L116.79 47.73L116.98 47.84L190.73 90.42V129.61H233.47V75.5C233.47 69.48 230.23 63.87 225.02 60.86L125.26 3.26C122.65 1.75001 119.73 1 116.81 1C113.89 1 110.96 1.75001 108.36 3.26L8.59009 60.86C3.37009 63.87 0.139893 69.48 0.139893 75.5V190.7C0.139893 196.72 3.38009 202.33 8.59009 205.34L108.36 262.94C113.58 265.95 120.05 265.95 125.27 262.94L225.03 205.34C230.25 202.33 233.48 196.72 233.48 190.7L233.47 190.72ZM215.67 190.2L215.48 190.31L116.8 247.28L116.61 247.17L17.9299 190.2V76.03L18.1201 75.92L116.8 18.95L116.99 19.06L215.67 76.03V111.82H208.54V80.14L116.8 27.17L25.0601 80.14V186.08L116.8 239.05L208.54 186.08V154.55H215.67V190.2Z" fill="#184E83"/>
<path d="M140.87 119.22V196.37L183.6 171.7V94.55L116.79 55.98L49.98 94.55V171.7L92.71 196.37V119.22L116.79 105.32L140.86 119.22H140.87ZM74.9199 108.94V165.53L67.79 161.41V104.82L116.8 76.53L116.99 76.64L165.81 104.82V161.41L158.68 165.53V108.94L116.8 84.76L74.9199 108.94Z" fill="#374151"/>
<path d="M776.78 96.78C776.24 93.01 775.26 89.86 773.88 87.41C772.41 84.81 770.38 82.79 767.84 81.4C765.45 80.1 762.46 79.21 758.95 78.76C756.1 78.39 752.7 78.18 748.86 78.13H746.05V71.01H733.57V78.13H730.77C726.94 78.18 723.55 78.39 720.69 78.76C717.18 79.21 714.19 80.1 711.8 81.4C709.25 82.79 707.22 84.81 705.76 87.41C704.38 89.86 703.4 93.01 702.86 96.78V96.86C702.07 102.3 702.07 107.82 702.85 113.26V113.34C703.41 117.11 704.38 120.26 705.76 122.71C707.23 125.31 709.26 127.33 711.8 128.72C714.19 130.02 717.18 130.91 720.69 131.36C723.54 131.73 726.94 131.94 730.78 131.99H733.57V138.88H746.05V131.99H748.88C752.72 131.94 756.11 131.73 758.96 131.36C762.47 130.91 765.46 130.02 767.85 128.72C770.39 127.34 772.43 125.31 773.89 122.71C775.27 120.26 776.25 117.1 776.79 113.34V113.25C777.58 107.81 777.58 102.3 776.8 96.86V96.78H776.78ZM733.56 120.49H730.8C728.06 120.46 725.7 120.36 723.76 120.19C721.65 120.01 719.96 119.6 718.73 118.99C717.7 118.48 716.96 117.71 716.4 116.57C715.94 115.63 715.32 113.86 714.99 110.71V110.66C714.59 106.94 714.59 103.17 714.99 99.45V99.38C715.33 96.24 715.95 94.47 716.41 93.53C716.97 92.39 717.71 91.62 718.74 91.11C719.97 90.5 721.67 90.1 723.77 89.91C725.7 89.74 728.07 89.64 730.8 89.61H733.58V120.47L733.56 120.49ZM764.65 110.66V110.69C764.31 113.86 763.69 115.64 763.23 116.57C762.67 117.71 761.93 118.48 760.9 118.99C759.67 119.6 757.97 120 755.86 120.19C753.92 120.36 751.56 120.46 748.83 120.49H746.03V89.63H748.82C751.56 89.66 753.93 89.76 755.86 89.93C757.97 90.11 759.66 90.52 760.9 91.13C761.93 91.64 762.67 92.41 763.23 93.55C763.69 94.49 764.31 96.26 764.64 99.41V99.46C765.03 103.18 765.03 106.95 764.64 110.67L764.65 110.66Z" fill="#374151"/>
<path d="M781.43 72.18V83.47H800.42V137.7H812.9V83.47H831.88V72.18H781.43Z" fill="#374151"/>
<path d="M569.22 112.39C569.19 114.43 569.1 116.23 568.96 117.76C568.74 120.24 568.3 122.21 567.65 123.6C567.09 124.79 566.34 125.62 565.29 126.19C564.31 126.72 563.04 127.11 561.49 127.35V138.87C563.31 138.68 564.89 138.45 566.19 138.17C570.29 137.3 573.56 135.64 575.91 133.24C578.25 130.84 579.87 127.42 580.7 123.09C581.25 120.22 581.68 116.7 581.68 112.55L581.7 83.47H607.86V137.58H620.34V72.19H569.22V112.4V112.39Z" fill="#374151"/>
<path d="M647.81 116.67V72.46H635.33V137.29H646.27L677.74 93.47V137.29H690.22V72.46H679.27L647.81 116.67Z" fill="#374151"/>
<path d="M387.57 80.95C385.98 78.13 383.77 75.93 381.01 74.43C378.48 73.05 375.33 72.11 371.66 71.64C369.01 71.3 364.95 71.06 360.78 71C356.62 71.06 352.55 71.3 349.91 71.64C346.24 72.11 343.09 73.05 340.56 74.43C337.79 75.94 335.59 78.13 334 80.95C332.54 83.54 331.51 86.85 330.94 90.78C330.42 94.41 330.15 98.92 330.15 104.19V105.69C330.15 112.11 330.59 117.44 331.45 121.54C332.42 126.13 334.22 129.77 336.79 132.36C339.37 134.96 342.9 136.74 347.28 137.66C350.52 138.34 355.45 138.78 360.79 138.87C366.13 138.78 371.05 138.34 374.3 137.66C378.68 136.74 382.21 134.96 384.79 132.36C387.36 129.77 389.16 126.13 390.13 121.54C391 117.44 391.43 112.11 391.43 105.69V104.19C391.43 98.92 391.16 94.41 390.64 90.78C390.07 86.85 389.04 83.54 387.58 80.95H387.57ZM376.3 105.69C376.3 109.78 376.16 113.2 375.87 115.84C375.62 118.17 375.19 119.99 374.58 121.24C374.13 122.17 373.55 122.8 372.75 123.23C371.68 123.81 370.16 124.2 368.24 124.39C366.58 124.56 363.8 124.69 360.79 124.73C357.78 124.69 354.99 124.56 353.33 124.39C351.41 124.19 349.89 123.8 348.82 123.23C348.02 122.8 347.44 122.17 346.99 121.24C346.38 119.99 345.95 118.17 345.7 115.84C345.42 113.19 345.27 109.78 345.27 105.69V104.19C345.27 99.95 345.41 96.43 345.7 93.73C346.01 90.78 346.57 89.16 346.98 88.32C347.41 87.45 347.96 86.88 348.71 86.5C349.79 85.96 351.33 85.6 353.27 85.44C354.95 85.29 357.76 85.19 360.78 85.15C363.81 85.19 366.62 85.3 368.3 85.44C370.24 85.61 371.78 85.97 372.86 86.5C373.61 86.87 374.16 87.45 374.59 88.32C375 89.16 375.56 90.78 375.87 93.73C376.15 96.43 376.3 99.95 376.3 104.19V105.69Z" fill="#184E83"/>
<path d="M482.83 80.95C481.24 78.13 479.03 75.93 476.27 74.43C473.74 73.05 470.59 72.11 466.92 71.64C464.27 71.3 460.21 71.06 456.04 71C451.88 71.06 447.81 71.3 445.17 71.64C441.5 72.11 438.35 73.05 435.82 74.43C433.05 75.93 430.85 78.13 429.26 80.95C427.8 83.54 426.77 86.85 426.2 90.78C425.9 92.86 425.68 95.28 425.55 97.98H416.83V72.18H401.71V137.69H416.83V111.9H425.56C425.76 115.62 426.14 118.86 426.71 121.54C427.68 126.13 429.48 129.77 432.05 132.36C434.63 134.96 438.16 136.74 442.54 137.66C445.78 138.34 450.7 138.78 456.05 138.87C461.39 138.78 466.32 138.34 469.56 137.66C473.94 136.74 477.47 134.96 480.05 132.36C482.62 129.77 484.42 126.13 485.39 121.54C486.26 117.44 486.69 112.11 486.69 105.69V104.19C486.69 98.92 486.42 94.41 485.9 90.78C485.33 86.85 484.3 83.54 482.84 80.95H482.83ZM471.55 105.69C471.55 109.78 471.41 113.2 471.12 115.84C470.87 118.17 470.44 119.99 469.83 121.24C469.38 122.17 468.8 122.8 468 123.23C466.93 123.81 465.41 124.2 463.49 124.39C461.83 124.56 459.04 124.69 456.04 124.73C453.03 124.69 450.24 124.56 448.58 124.39C446.66 124.19 445.14 123.8 444.07 123.23C443.27 122.8 442.69 122.17 442.24 121.24C441.63 119.99 441.2 118.17 440.95 115.84C440.67 113.19 440.52 109.78 440.52 105.69V104.19C440.52 99.95 440.66 96.43 440.95 93.73C441.26 90.78 441.82 89.16 442.23 88.32C442.66 87.45 443.21 86.88 443.96 86.5C445.04 85.96 446.58 85.6 448.52 85.44C450.19 85.29 453 85.19 456.03 85.15C459.06 85.19 461.87 85.3 463.55 85.44C465.49 85.61 467.03 85.97 468.11 86.5C468.86 86.87 469.41 87.45 469.84 88.32C470.25 89.16 470.81 90.78 471.12 93.73C471.4 96.43 471.55 99.95 471.55 104.19V105.69Z" fill="#184E83"/>
<path d="M276.09 93.73C276.4 90.78 276.96 89.16 277.37 88.32C277.8 87.45 278.35 86.88 279.1 86.5C280.18 85.96 281.72 85.6 283.66 85.44C285.34 85.29 288.15 85.19 291.17 85.15C294.2 85.19 297.01 85.3 298.69 85.44C300.63 85.61 302.17 85.97 303.25 86.5C304 86.87 304.55 87.45 304.98 88.32C305.39 89.16 305.95 90.78 306.26 93.73C306.33 94.36 306.39 95.05 306.44 95.8V95.98H321.55V95.78C321.41 93.94 321.23 92.26 321.02 90.78C320.45 86.85 319.42 83.54 317.96 80.95C316.37 78.13 314.16 75.93 311.4 74.43C308.87 73.05 305.72 72.11 302.05 71.64C299.4 71.3 295.34 71.06 291.17 71C287.01 71.06 282.94 71.3 280.3 71.64C276.63 72.11 273.48 73.05 270.95 74.43C268.18 75.94 265.98 78.13 264.39 80.95C262.93 83.54 261.9 86.85 261.33 90.78C260.81 94.41 260.54 98.92 260.54 104.19V105.69C260.54 112.11 260.98 117.44 261.84 121.54C262.81 126.13 264.61 129.77 267.18 132.36C269.76 134.96 273.29 136.74 277.67 137.66C280.91 138.34 285.84 138.78 291.18 138.87C296.52 138.78 301.44 138.34 304.69 137.66C309.07 136.74 312.6 134.96 315.18 132.36C317.76 129.77 319.55 126.13 320.52 121.54C320.97 119.41 321.31 116.91 321.53 114.1L321.55 113.9H306.46V114.07C306.4 114.74 306.34 115.32 306.29 115.84C306.04 118.17 305.61 119.99 305 121.24C304.55 122.17 303.97 122.8 303.17 123.23C302.1 123.81 300.58 124.2 298.66 124.39C297 124.56 294.22 124.69 291.21 124.73C288.2 124.69 285.41 124.56 283.75 124.39C281.83 124.19 280.31 123.8 279.24 123.23C278.44 122.8 277.86 122.17 277.41 121.24C276.8 119.99 276.37 118.17 276.12 115.84C275.84 113.19 275.69 109.78 275.69 105.69V104.19C275.69 99.95 275.83 96.43 276.12 93.73H276.09Z" fill="#184E83"/>
<path d="M549.11 101.04C551.78 97.89 552.14 94.11 552.15 91.17C552.16 87.96 552.06 84.27 550.62 80.97C549.48 78.36 547.33 76.22 544.05 74.43C541.51 73.05 538.37 72.11 534.7 71.64C531.8 71.27 528.35 71.05 524.45 71C519.63 71.06 515.12 71.34 512.07 71.76C507.95 72.33 504.52 73.51 501.87 75.27C498.98 77.19 496.88 79.99 495.62 83.6C494.5 86.8 493.95 90.79 493.94 95.8V95.99H509.06V95.8C509.07 91.93 509.49 89.83 509.84 88.75C510.3 87.33 510.92 86.84 511.35 86.58C512.05 86.17 513.41 85.65 515.95 85.44C518.15 85.26 520.42 85.17 523.28 85.15C525.67 85.18 526.59 85.26 528.11 85.39L528.7 85.44C530.64 85.61 532.18 85.97 533.26 86.5C534.98 87.35 535.52 89.22 535.69 90.25C536.06 92.52 535.55 96.23 533.26 97.36C532.18 97.9 530.64 98.26 528.67 98.43C527.17 98.56 525.65 98.63 524.16 98.63H516.23V111.25H524.16C525.65 111.25 527.17 111.32 528.7 111.45C530.64 111.62 532.18 111.98 533.26 112.51C535.55 113.65 536.06 117.35 535.69 119.62C535.52 120.66 534.98 122.52 533.26 123.37C532.18 123.91 530.64 124.27 528.7 124.44L528.11 124.49C526.59 124.62 525.67 124.71 523.28 124.73C520.4 124.7 518.14 124.61 515.95 124.43C513.41 124.23 512.05 123.7 511.35 123.29C510.92 123.04 510.3 122.54 509.84 121.12C509.49 120.04 509.07 117.94 509.06 114.07V113.88H493.94V114.07C493.95 119.08 494.5 123.07 495.62 126.27C496.88 129.88 498.98 132.68 501.87 134.6C504.52 136.36 507.96 137.55 512.07 138.11C515.12 138.53 519.63 138.81 524.45 138.87C528.34 138.82 531.79 138.6 534.69 138.23C538.36 137.76 541.51 136.82 544.04 135.44C547.32 133.65 549.47 131.52 550.61 128.9C552.05 125.6 552.16 121.9 552.14 118.7C552.13 115.76 551.77 111.98 549.1 108.83C547.69 107.17 545.6 105.79 543.2 104.93C545.59 104.08 547.68 102.7 549.1 101.03L549.11 101.04Z" fill="#184E83"/>
<path d="M681.664 177.748C681.664 178.708 681.808 179.428 682.096 179.908C682.384 180.356 682.88 180.692 683.584 180.916L682.336 184.564C679.68 184.244 677.936 183.076 677.104 181.06C676.176 182.212 675.008 183.092 673.6 183.7C672.224 184.276 670.704 184.564 669.04 184.564C666.48 184.564 664.448 183.844 662.944 182.404C661.44 180.964 660.688 179.06 660.688 176.692C660.688 174.036 661.728 171.988 663.808 170.548C665.92 169.108 668.896 168.388 672.736 168.388H676.336V166.756C676.336 165.156 675.856 163.988 674.896 163.252C673.936 162.516 672.544 162.148 670.72 162.148C669.824 162.148 668.784 162.26 667.6 162.484C666.416 162.708 665.216 163.028 664 163.444L662.656 159.652C665.696 158.5 668.656 157.924 671.536 157.924C674.896 157.924 677.424 158.66 679.12 160.132C680.816 161.604 681.664 163.7 681.664 166.42V177.748ZM670.624 180.628C671.744 180.628 672.816 180.34 673.84 179.764C674.896 179.188 675.728 178.388 676.336 177.364V171.748H673.36C670.928 171.748 669.152 172.164 668.032 172.996C666.912 173.796 666.352 174.964 666.352 176.5C666.352 177.844 666.704 178.868 667.408 179.572C668.144 180.276 669.216 180.628 670.624 180.628Z" fill="#374151"/>
<path d="M709.293 184.036C708.269 187.108 706.781 189.508 704.829 191.236C702.909 192.996 700.253 194.02 696.861 194.308L696.189 190.276C697.853 190.02 699.197 189.62 700.221 189.076C701.245 188.564 702.061 187.908 702.669 187.108C703.277 186.308 703.821 185.252 704.301 183.94H702.477L693.933 158.596H699.645L706.029 180.196L712.509 158.596H718.029L709.293 184.036Z" fill="#374151"/>
<path d="M751.514 179.764V191.476H747.29L746.522 183.94H731.21L730.442 191.476H726.17V179.764H727.994C728.73 179.092 729.322 178.308 729.77 177.412C730.218 176.484 730.586 175.188 730.874 173.524C731.194 171.86 731.466 169.604 731.69 166.756L732.266 158.596H749.45V179.764H751.514ZM744.218 162.628H737.066L736.826 166.468C736.602 169.444 736.33 171.764 736.01 173.428C735.69 175.092 735.258 176.388 734.714 177.316C734.202 178.244 733.466 179.06 732.506 179.764H744.218V162.628Z" fill="#374151"/>
<path d="M783.272 183.94H778.088V173.524C778.088 171.508 778.168 169.62 778.328 167.86C778.488 166.068 778.648 164.804 778.808 164.068L769.016 183.94H763.016V158.596H768.2V169.06C768.2 170.916 768.12 172.756 767.96 174.58C767.832 176.404 767.672 177.668 767.48 178.372L777.176 158.596H783.272V183.94Z" fill="#374151"/>
<path d="M818.053 162.772H809.413V183.94H804.037V162.772H795.061V158.596H818.677L818.053 162.772Z" fill="#374151"/>
</svg>
