<svg width="120" height="120" viewBox="0 0 120 120" fill="none" xmlns="http://www.w3.org/2000/svg">
<rect width="120" height="120" rx="35" fill="#F6522E"/>
<path d="M35.0724 93.5249C34.914 89.9351 34.8348 85.9759 34.8348 81.6471C34.8348 77.4766 34.914 73.0422 35.0724 68.3439C35.2308 63.6456 35.4683 58.8944 35.7851 54.0905C36.1018 49.2338 36.5241 44.509 37.052 39.9163C36.2074 40.1275 35.3891 40.3386 34.5973 40.5498C33.8582 40.7081 33.1719 40.8929 32.5385 41.1041L28.5 28.5136C41.2753 25.5045 51.9125 24 60.4118 24C77.6742 24 86.3054 30.5724 86.3054 43.7172C86.3054 49.8937 84.2466 54.8032 80.129 58.4457C76.0113 62.0354 69.9668 64.3054 61.9955 65.2557C66.7994 69.3205 71.6297 72.6727 76.4864 75.3122C81.3959 77.8989 86.3582 80.0897 91.3733 81.8846L82.6629 93.5249C79.865 92.5219 76.9351 91.1229 73.8733 89.3281C70.8115 87.5332 67.776 85.5535 64.767 83.3891C61.7579 81.2247 58.8808 79.0339 56.1357 76.8167C53.4434 74.5996 51.0415 72.5407 48.9299 70.6403C48.8771 74.2828 48.8243 77.9781 48.7715 81.7262C48.7715 85.4216 48.7715 89.2489 48.7715 93.2081L48.2964 93.6833C46.2903 93.6833 44.1259 93.6833 41.8032 93.6833C39.5332 93.736 37.4744 93.8416 35.6267 94L35.0724 93.5249ZM59.6991 36.5905C58.221 36.5905 56.69 36.6697 55.1063 36.8281C53.5226 36.9336 51.9389 37.092 50.3552 37.3032C50.144 40.2594 49.9593 43.1893 49.8009 46.0928C49.6425 48.9434 49.5106 51.7941 49.405 54.6448C51.7278 54.592 54.2353 54.46 56.9276 54.2489C59.6727 53.9849 62.2594 53.5098 64.6878 52.8235C67.1161 52.0845 69.0958 51.0287 70.6267 49.6561C72.2104 48.2836 73.0023 46.4623 73.0023 44.1923C73.0023 41.5528 71.9201 39.6259 69.7557 38.4118C67.5913 37.1976 64.2391 36.5905 59.6991 36.5905Z" fill="white"/>
</svg>
