<svg width="40" height="30" viewBox="0 0 40 30" fill="none" xmlns="http://www.w3.org/2000/svg">
<path d="M25.833 0C27.6738 0 29.1668 1.49221 29.167 3.33301H30C34.7139 3.33301 37.0707 3.33354 38.5352 4.79785C39.9996 6.26228 40 8.61917 40 13.333V20C40 24.714 39.9996 27.0707 38.5352 28.5352C37.0707 29.9996 34.714 30 30 30H10C5.28598 30 2.92931 29.9996 1.46484 28.5352C0.000381515 27.0707 0 24.714 0 20V13.333C6.68166e-10 8.61917 0.000409155 6.26228 1.46484 4.79785C2.92932 3.33355 5.28613 3.33301 10 3.33301H10.833C10.8332 1.49221 12.3261 0 14.167 0H25.833ZM20 7.5C14.9375 7.50018 10.833 11.6045 10.833 16.667L10.8447 17.1387C11.0825 21.8257 14.8413 25.5837 19.5283 25.8213L20 25.833C24.9041 25.8328 28.9086 21.9818 29.1543 17.1387L29.166 16.667C29.166 11.7627 25.3149 7.75737 20.4717 7.51172L20 7.5ZM20 9.98828C23.6885 9.98846 26.6787 12.9785 26.6787 16.667C26.6785 20.3554 23.6884 23.3455 20 23.3457C16.3116 23.3455 13.3215 20.3554 13.3213 16.667C13.3213 12.9785 16.3115 9.98846 20 9.98828ZM20 11.2559C19.313 11.2559 18.7559 11.813 18.7559 12.5C18.7559 13.1441 19.2457 13.6737 19.873 13.7373L20 13.7441L20.2871 13.7578C20.5724 13.786 20.8523 13.8567 21.1182 13.9668C21.4726 14.1136 21.7951 14.3284 22.0664 14.5996C22.3377 14.8709 22.5533 15.1934 22.7002 15.5479C22.8471 15.9024 22.9228 16.2832 22.9229 16.667C22.923 17.3538 23.4801 17.9102 24.167 17.9102C24.8537 17.91 25.41 17.3537 25.4102 16.667C25.4101 15.9565 25.2709 15.2521 24.999 14.5957C24.7271 13.9395 24.3284 13.3431 23.8262 12.8408C23.3238 12.3384 22.7267 11.9399 22.0703 11.668C21.4959 11.43 20.8853 11.2932 20.2656 11.2627L20 11.2559ZM7.83301 8.83301C7.00486 8.83319 6.3332 9.50486 6.33301 10.333C6.33301 11.1613 7.00473 11.8328 7.83301 11.833C8.66143 11.833 9.33301 11.1614 9.33301 10.333C9.33281 9.50475 8.66131 8.83301 7.83301 8.83301Z" fill="black" fill-opacity="0.3"/>
</svg>
