<svg width="173" height="28" viewBox="0 0 173 28" fill="none" xmlns="http://www.w3.org/2000/svg">
<path d="M46.3665 14.8123V12.5253C46.3665 11.4619 46.0758 10.5971 45.4946 9.93081C44.9198 9.26457 44.1557 8.93145 43.2021 8.93145C42.2551 8.93145 41.5073 9.26457 40.9586 9.93081C40.41 10.5971 40.1357 11.4619 40.1357 12.5253V14.8123C40.1357 15.8949 40.41 16.7694 40.9586 17.4356C41.5073 18.1019 42.2583 18.435 43.2119 18.435C44.172 18.435 44.9361 18.1051 45.5044 17.4452C46.0791 16.779 46.3665 15.9013 46.3665 14.8123ZM48.5022 12.5445V14.8123C48.5022 16.3946 47.9829 17.6951 46.9445 18.7136L49.0802 20.7508L47.6499 22L45.2888 19.7899C44.6357 20.0333 43.9369 20.155 43.1923 20.155C41.6575 20.155 40.4067 19.6553 39.4401 18.656C38.48 17.6502 38 16.369 38 14.8123V12.5445C38 10.9942 38.48 9.71621 39.4401 8.71044C40.4067 7.70468 41.6542 7.20179 43.1825 7.20179C44.2144 7.20179 45.1353 7.43242 45.9452 7.89366C46.7616 8.3549 47.3919 8.99231 47.836 9.80589C48.2801 10.6131 48.5022 11.5259 48.5022 12.5445Z" fill="#222222"/>
<path d="M55.9673 14.524H53.1165V19.7514H50.971V7.16336H55.7126C57.156 7.16336 58.2663 7.48046 59.0435 8.11467C59.8208 8.74247 60.2094 9.64574 60.2094 10.8245C60.2094 12.1249 59.5366 13.0634 58.1912 13.64C59.5497 14.0628 60.229 15.0557 60.229 16.6188V17.6662C60.229 18.5823 60.4347 19.2101 60.8462 19.5496V19.7514H58.6419C58.2696 19.4439 58.0835 18.7425 58.0835 17.647V16.6381C58.0835 15.9846 57.894 15.4689 57.5152 15.091C57.143 14.713 56.627 14.524 55.9673 14.524ZM53.1165 8.84497V12.8424H55.6049C56.4604 12.8424 57.0842 12.6823 57.4761 12.3619C57.8745 12.0416 58.0737 11.5516 58.0737 10.8917C58.0737 10.2319 57.8745 9.72582 57.4761 9.37348C57.0842 9.02114 56.4964 8.84497 55.7126 8.84497H53.1165Z" fill="#222222"/>
<path d="M75.316 15.5906H77.3832L77.4028 15.6483C77.4224 16.9423 76.9978 17.9833 76.1292 18.7713C75.2605 19.5593 74.0816 19.9532 72.5925 19.9532C71.1034 19.9532 69.8886 19.4632 68.9481 18.483C68.0142 17.4965 67.5472 16.2281 67.5472 14.6778V12.2851C67.5472 10.7348 68.0109 9.46637 68.9383 8.47982C69.8657 7.49327 71.0806 7 72.5827 7C74.0849 7 75.2703 7.39078 76.139 8.17233C77.0076 8.94747 77.4321 9.99808 77.4126 11.3242L77.393 11.3722H75.316C75.316 10.5138 75.0809 9.85074 74.6107 9.38309C74.1404 8.91544 73.4612 8.68161 72.5729 8.68161C71.6912 8.68161 70.9891 9.01794 70.4666 9.69058C69.9507 10.3632 69.6927 11.2217 69.6927 12.2659V14.6778C69.6927 15.7348 69.9572 16.5996 70.4862 17.2723C71.0152 17.9385 71.7239 18.2716 72.6121 18.2716C73.5004 18.2716 74.1731 18.0442 74.6303 17.5894C75.0874 17.1281 75.316 16.4619 75.316 15.5906Z" fill="#222222"/>
<path d="M87.3759 14.6105V12.3235C87.3759 11.2537 87.0853 10.3889 86.504 9.72902C85.9292 9.06278 85.1651 8.72966 84.2115 8.72966C83.2645 8.72966 82.5167 9.06278 81.9681 9.72902C81.4194 10.3889 81.1451 11.2537 81.1451 12.3235V14.6105C81.1451 15.6867 81.4194 16.5612 81.9681 17.2338C82.5167 17.9001 83.2678 18.2332 84.2213 18.2332C85.1814 18.2332 85.9456 17.9001 86.5138 17.2338C87.0885 16.5676 87.3759 15.6931 87.3759 14.6105ZM89.5116 12.3427V14.6105C89.5116 16.1672 89.0185 17.4484 88.0323 18.4542C87.0461 19.4536 85.7758 19.9532 84.2213 19.9532C82.6734 19.9532 81.4162 19.4536 80.4496 18.4542C79.4895 17.4484 79.0094 16.1672 79.0094 14.6105V12.3427C79.0094 10.7924 79.4895 9.51441 80.4496 8.50865C81.4162 7.50288 82.6636 7 84.1919 7C85.2239 7 86.1448 7.23062 86.9546 7.69186C87.771 8.15311 88.4013 8.79052 88.8454 9.6041C89.2895 10.4113 89.5116 11.3242 89.5116 12.3427Z" fill="#222222"/>
<path d="M95.9285 8.84497H93.9692V18.0698H95.9285C96.98 18.0698 97.8128 17.7367 98.4267 17.0705C99.0406 16.3978 99.3476 15.5138 99.3476 14.4183V12.4869C99.3476 11.3978 99.0406 10.5202 98.4267 9.85394C97.8128 9.18129 96.98 8.84497 95.9285 8.84497ZM95.9873 19.7514H91.8237V7.16336H95.9873C97.6201 7.16336 98.9459 7.65983 99.9648 8.65279C100.984 9.64574 101.493 10.9302 101.493 12.5061V14.4183C101.493 15.9942 100.984 17.2787 99.9648 18.2716C98.9459 19.2582 97.6201 19.7514 95.9873 19.7514Z" fill="#222222"/>
<path d="M111.456 12.4004V14.082H105.843V18.0698H112.358V19.7514H103.697V7.16336H112.299V8.84497H105.843V12.4004H111.456Z" fill="#222222"/>
<path d="M128.033 7.16336V8.84497H124.153V19.7514H122.008V8.84497H118.128V7.16336H128.033Z" fill="#222222"/>
<path d="M137.34 14.6105V12.3235C137.34 11.2537 137.049 10.3889 136.468 9.72902C135.893 9.06278 135.129 8.72966 134.175 8.72966C133.228 8.72966 132.48 9.06278 131.932 9.72902C131.383 10.3889 131.109 11.2537 131.109 12.3235V14.6105C131.109 15.6867 131.383 16.5612 131.932 17.2338C132.48 17.9001 133.231 18.2332 134.185 18.2332C135.145 18.2332 135.909 17.9001 136.478 17.2338C137.052 16.5676 137.34 15.6931 137.34 14.6105ZM139.475 12.3427V14.6105C139.475 16.1672 138.982 17.4484 137.996 18.4542C137.01 19.4536 135.739 19.9532 134.185 19.9532C132.637 19.9532 131.38 19.4536 130.413 18.4542C129.453 17.4484 128.973 16.1672 128.973 14.6105V12.3427C128.973 10.7924 129.453 9.51441 130.413 8.50865C131.38 7.50288 132.627 7 134.156 7C135.188 7 136.108 7.23062 136.918 7.69186C137.735 8.15311 138.365 8.79052 138.809 9.6041C139.253 10.4113 139.475 11.3242 139.475 12.3427Z" fill="#222222"/>
<path d="M149.664 14.6105V12.3235C149.664 11.2537 149.373 10.3889 148.792 9.72902C148.217 9.06278 147.453 8.72966 146.5 8.72966C145.553 8.72966 144.805 9.06278 144.256 9.72902C143.708 10.3889 143.433 11.2537 143.433 12.3235V14.6105C143.433 15.6867 143.708 16.5612 144.256 17.2338C144.805 17.9001 145.556 18.2332 146.509 18.2332C147.47 18.2332 148.234 17.9001 148.802 17.2338C149.377 16.5676 149.664 15.6931 149.664 14.6105ZM151.8 12.3427V14.6105C151.8 16.1672 151.307 17.4484 150.32 18.4542C149.334 19.4536 148.064 19.9532 146.509 19.9532C144.962 19.9532 143.704 19.4536 142.738 18.4542C141.778 17.4484 141.298 16.1672 141.298 14.6105V12.3427C141.298 10.7924 141.778 9.51441 142.738 8.50865C143.704 7.50288 144.952 7 146.48 7C147.512 7 148.433 7.23062 149.243 7.69186C150.059 8.15311 150.689 8.79052 151.134 9.6041C151.578 10.4113 151.8 11.3242 151.8 12.3427Z" fill="#222222"/>
<path d="M156.257 7.16336V18.0698H162.155V19.7514H154.112V7.16336H156.257Z" fill="#222222"/>
<path d="M168.347 18.2908C169.137 18.2908 169.751 18.1371 170.188 17.8296C170.632 17.5157 170.854 17.0897 170.854 16.5516C170.854 16.0135 170.652 15.5778 170.247 15.2447C169.849 14.9116 169.153 14.6137 168.16 14.3511C166.665 13.9603 165.545 13.4606 164.8 12.852C164.056 12.237 163.683 11.4363 163.683 10.4497C163.683 9.45676 164.111 8.63357 164.967 7.98014C165.822 7.32671 166.936 7 168.307 7C169.679 7 170.796 7.36515 171.658 8.09545C172.526 8.82575 172.948 9.72582 172.922 10.7956L172.902 10.8437H170.845C170.845 10.1839 170.619 9.65855 170.169 9.26778C169.718 8.8706 169.094 8.67201 168.298 8.67201C167.507 8.67201 166.897 8.83857 166.466 9.17168C166.041 9.4984 165.829 9.918 165.829 10.4305C165.829 10.9366 166.054 11.3466 166.505 11.6605C166.955 11.9744 167.713 12.2755 168.778 12.5637C170.188 12.9353 171.243 13.4446 171.942 14.0916C172.647 14.7322 173 15.5586 173 16.5708C173 17.583 172.575 18.3997 171.726 19.0211C170.877 19.6425 169.751 19.9532 168.347 19.9532C167.674 19.9532 167.03 19.8635 166.417 19.6842C165.809 19.4984 165.274 19.2422 164.81 18.9154C164.346 18.5887 163.98 18.1787 163.713 17.6855C163.445 17.1858 163.317 16.6413 163.331 16.0519L163.35 16.0038H165.417C165.417 16.747 165.679 17.3139 166.201 17.7047C166.724 18.089 167.435 18.2812 168.337 18.2812L168.347 18.2908Z" fill="#222222"/>
<rect x="1.25" y="1.25" width="25.5" height="25.5" rx="3.75" stroke="#222222" stroke-width="2.5"/>
<rect x="6" y="6" width="16" height="16" rx="2" fill="#222222"/>
</svg>
