<svg width="36" height="34" viewBox="0 0 36 34" fill="none" xmlns="http://www.w3.org/2000/svg">
<path d="M2 23.91V26.9437C2 29.7362 4.26373 31.9999 7.05618 31.9999H28.9438C31.7363 31.9999 34 29.7362 34 26.9437V23.91" stroke="black" stroke-opacity="0.3" stroke-width="2.52809" stroke-linecap="round" stroke-linejoin="round"/>
<path d="M16.7359 23.91C16.7359 24.6081 17.3018 25.1741 17.9999 25.1741C18.6981 25.1741 19.264 24.6081 19.264 23.91L16.7359 23.91ZM18.8938 1.10611C18.4001 0.612467 17.5998 0.612467 17.1061 1.10611L9.06179 9.15044C8.56815 9.64408 8.56815 10.4444 9.06179 10.9381C9.55543 11.4317 10.3558 11.4317 10.8494 10.9381L17.9999 3.78755L25.1505 10.9381C25.6441 11.4317 26.4444 11.4317 26.9381 10.9381C27.4317 10.4444 27.4317 9.64408 26.9381 9.15044L18.8938 1.10611ZM17.9999 23.91L19.264 23.91L19.264 1.99992L17.9999 1.99992L16.7359 1.99992L16.7359 23.91L17.9999 23.91Z" fill="black" fill-opacity="0.3"/>
</svg>
