<?xml version="1.0" encoding="UTF-8"?> <svg xmlns="http://www.w3.org/2000/svg" width="200" height="70" viewBox="0 0 450.9 70"><g id="svgGroup" stroke-linecap="round" fill-rule="evenodd" font-size="9pt" stroke="#ffffff" stroke-width="0.25mm" fill="#ffffff" style="stroke:#ffffff;stroke-width:0.25mm;fill:#ffffff"><path d="M 386.1 70 L 371.5 70 L 371.5 20.8 L 386.1 20.8 L 386.1 35.6 L 430.3 35.6 Q 433.8 35.6 435.05 33.4 Q 436.124 31.51 436.275 28.736 A 17.167 17.167 0 0 0 436.3 27.8 L 436.3 20.7 A 17.958 17.958 0 0 0 436.307 20.215 Q 436.307 13.972 431.736 13.365 A 7.881 7.881 0 0 0 430.7 13.3 L 371.5 13.3 L 371.5 0 L 435 0 A 17.412 17.412 0 0 1 442.207 1.589 A 20.065 20.065 0 0 1 442.45 1.7 Q 446.1 3.4 448.45 6.65 Q 450.8 9.9 450.9 14.1 L 450.9 33.5 Q 450.7 40 447 44.45 A 12.007 12.007 0 0 1 438.241 48.861 A 16.348 16.348 0 0 1 437.1 48.9 L 450.9 70 L 434.2 70 L 420.5 48.9 L 386.1 48.9 L 386.1 70 Z M 0 70 L 35.8 0 L 56.5 0 L 92.3 70 L 75.2 70 L 68.4 56.8 L 32.3 56.8 L 39.1 43.5 L 61.6 43.5 L 46.1 13.3 L 17.1 70 L 0 70 Z M 132.6 70 L 168.4 0 L 189.1 0 L 224.9 70 L 207.8 70 L 201 56.8 L 164.9 56.8 L 171.7 43.5 L 194.2 43.5 L 178.7 13.3 L 149.7 70 L 132.6 70 Z M 274.2 70 L 310 0 L 330.7 0 L 366.5 70 L 349.4 70 L 342.6 56.8 L 306.5 56.8 L 313.3 43.5 L 335.8 43.5 L 320.3 13.3 L 291.3 70 L 274.2 70 Z M 102.1 70 L 66.3 0 L 83.4 0 L 112.4 56.7 L 141.4 0 L 158.6 0 L 122.7 70 L 102.1 70 Z M 209.9 14.7 L 209.9 0 L 289.2 0 L 289.2 14.7 L 209.9 14.7 Z M 242.3 70 L 242.3 22.2 L 256.9 22.2 L 256.9 70 L 242.3 70 Z"></path></g></svg> 