<svg width="188" height="130" viewBox="0 0 188 130" fill="none" xmlns="http://www.w3.org/2000/svg">
<path d="M165.455 46.8591H157.337V130H165.455V46.8591Z" fill="url(#paint0_linear_280_2)"/>
<path fill-rule="evenodd" clip-rule="evenodd" d="M161.302 82.4923L188 109.215H176.593L161.302 93.9093L146.199 109.215H134.604L161.302 82.4923Z" fill="url(#paint1_linear_280_2)"/>
<path fill-rule="evenodd" clip-rule="evenodd" d="M161.302 59.8171L188 86.5396H176.593L161.302 71.2341L146.199 86.5396H134.604L161.302 59.8171Z" fill="url(#paint2_linear_280_2)"/>
<path fill-rule="evenodd" clip-rule="evenodd" d="M161.302 37.3313L188 64.0538H176.593L161.302 48.7483L146.199 64.0538H134.604L161.302 37.3313Z" fill="url(#paint3_linear_280_2)"/>
<path d="M99.1149 12.3862H88.5607V120.47H99.1149V12.3862Z" fill="url(#paint4_linear_280_2)"/>
<path fill-rule="evenodd" clip-rule="evenodd" d="M93.9058 58.7089L128.614 93.4482H113.785L93.9058 73.551L74.2722 93.4482H59.1981L93.9058 58.7089Z" fill="url(#paint5_linear_280_2)"/>
<path fill-rule="evenodd" clip-rule="evenodd" d="M93.9058 29.2318L128.614 63.9711H113.785L93.9058 44.074L74.2722 63.9711H59.1981L93.9058 29.2318Z" fill="url(#paint6_linear_280_2)"/>
<path fill-rule="evenodd" clip-rule="evenodd" d="M93.906 0L128.614 34.7393H113.785L93.906 14.8422L74.2724 34.7393H59.3871L93.906 0Z" fill="url(#paint7_linear_280_2)"/>
<path d="M30.8516 46.8591H22.7339V130H30.8516V46.8591Z" fill="url(#paint8_linear_280_2)"/>
<path fill-rule="evenodd" clip-rule="evenodd" d="M26.6981 82.4923L53.3963 109.215H41.9897L26.6981 93.9093L11.5954 109.215H0L26.6981 82.4923Z" fill="url(#paint9_linear_280_2)"/>
<path fill-rule="evenodd" clip-rule="evenodd" d="M26.6981 59.8171L53.3963 86.5396H41.9897L26.6981 71.2341L11.5954 86.5396H0L26.6981 59.8171Z" fill="url(#paint10_linear_280_2)"/>
<path fill-rule="evenodd" clip-rule="evenodd" d="M26.6981 37.3313L53.3963 64.0538H41.9897L26.6981 48.7483L11.5954 64.0538H0L26.6981 37.3313Z" fill="url(#paint11_linear_280_2)"/>
<defs>
<linearGradient id="paint0_linear_280_2" x1="161.18" y1="177.966" x2="241.045" y2="136.808" gradientUnits="userSpaceOnUse">
<stop stop-color="#170404"/>
<stop offset="1" stop-color="#B53B16"/>
</linearGradient>
<linearGradient id="paint1_linear_280_2" x1="159.882" y1="124.632" x2="165.806" y2="62.154" gradientUnits="userSpaceOnUse">
<stop stop-color="#170404"/>
<stop offset="1" stop-color="#B53B16"/>
</linearGradient>
<linearGradient id="paint2_linear_280_2" x1="159.882" y1="101.956" x2="165.806" y2="39.4788" gradientUnits="userSpaceOnUse">
<stop stop-color="#170404"/>
<stop offset="1" stop-color="#B53B16"/>
</linearGradient>
<linearGradient id="paint3_linear_280_2" x1="159.882" y1="79.4706" x2="165.806" y2="16.993" gradientUnits="userSpaceOnUse">
<stop stop-color="#170404"/>
<stop offset="1" stop-color="#B53B16"/>
</linearGradient>
<linearGradient id="paint4_linear_280_2" x1="93.5571" y1="182.825" x2="197.388" y2="129.311" gradientUnits="userSpaceOnUse">
<stop stop-color="#170404"/>
<stop offset="1" stop-color="#B53B16"/>
</linearGradient>
<linearGradient id="paint5_linear_280_2" x1="92.0597" y1="113.49" x2="99.7609" y2="32.2689" gradientUnits="userSpaceOnUse">
<stop stop-color="#170404"/>
<stop offset="1" stop-color="#B53B16"/>
</linearGradient>
<linearGradient id="paint6_linear_280_2" x1="92.0597" y1="84.0131" x2="99.7609" y2="2.79187" gradientUnits="userSpaceOnUse">
<stop stop-color="#170404"/>
<stop offset="1" stop-color="#B53B16"/>
</linearGradient>
<linearGradient id="paint7_linear_280_2" x1="92.1593" y1="54.7812" x2="99.8811" y2="-26.436" gradientUnits="userSpaceOnUse">
<stop stop-color="#170404"/>
<stop offset="1" stop-color="#B53B16"/>
</linearGradient>
<linearGradient id="paint8_linear_280_2" x1="26.5769" y1="177.966" x2="106.442" y2="136.808" gradientUnits="userSpaceOnUse">
<stop stop-color="#170404"/>
<stop offset="1" stop-color="#B53B16"/>
</linearGradient>
<linearGradient id="paint9_linear_280_2" x1="25.278" y1="124.632" x2="31.202" y2="62.154" gradientUnits="userSpaceOnUse">
<stop stop-color="#170404"/>
<stop offset="1" stop-color="#B53B16"/>
</linearGradient>
<linearGradient id="paint10_linear_280_2" x1="25.278" y1="101.956" x2="31.202" y2="39.4788" gradientUnits="userSpaceOnUse">
<stop stop-color="#170404"/>
<stop offset="1" stop-color="#B53B16"/>
</linearGradient>
<linearGradient id="paint11_linear_280_2" x1="25.278" y1="79.4706" x2="31.202" y2="16.993" gradientUnits="userSpaceOnUse">
<stop stop-color="#170404"/>
<stop offset="1" stop-color="#B53B16"/>
</linearGradient>
</defs>
</svg>
